# xmcd
#
# Track frame offsets:
#	150
#	16507
#	30643
#	45274
#	58993
#	74972
#	89588
#	101555
#	116066
#	135187
#	150872
#
# Disc length: 2171 seconds
#
# Revision: 0
# Processed by: cddbd v1.5.2PL0 Copyright (c) Steve Scherf et al.
# Submitted via: dBpowerAMP V4.0
#
DISCID=8708790b
DTITLE=Bret Marchant - Jumpin' Fences
DYEAR=1900
DGENRE=
TTITLE0=Cowboy In You
TTITLE1=Jumpin' Fences
TTITLE2=100 Years
TTITLE3=Judge's Eyes
TTITLE4=Listen Teacher
TTITLE5=Justify
TTITLE6=Tall Tales
TTITLE7=Montana
TTITLE8=Earl Durand
TTITLE9=It Ain't Happening
TTITLE10=Sping Grass
EXTD=
EXTT0=
EXTT1=
EXTT2=
EXTT3=
EXTT4=
EXTT5=
EXTT6=
EXTT7=
EXTT8=
EXTT9=
EXTT10=
PLAYORDER=
